<?xml version="1.0" encoding="UTF-8"?>
<svg width="150" height="150" viewBox="0 0 9 9" xmlns="http://www.w3.org/2000/svg" xmlns:xlink="http://www.w3.org/1999/xlink">
 <linearGradient id="linear-gradient" gradientUnits="userSpaceOnUse" x1="0" x2="9" y1="9" y2="0">
  <stop offset="0" stop-color="#0074f5"/>
  <stop offset="1" stop-color="#03aaff"/>
 </linearGradient>
 <path d="m.0625 0h8.875c.03516 0 .0625.02734.0625.0625v8.875c0 .03516-.02734.0625-.0625.0625h-8.875c-.03516 0-.0625-.02734-.0625-.0625v-8.875c0-.03516.02734-.0625.0625-.0625zm0 0" fill="url(#linear-gradient)"/>
 <path d="m7.41016 3.91016h-2.32031v-2.32031c0-.03516-.03125-.0625-.0625-.0625h-1.05469c-.03516 0-.0625.02734-.0625.0625v2.32031h-2.32031c-.03516 0-.0625.02734-.0625.0625v1.05469c0 .03516.02734.0625.0625.0625h2.32031v2.32031c0 .03516.02734.0625.0625.0625h1.05469c.03125 0 .0625-.02734.0625-.0625v-2.32031h2.31641c.03516 0 .0625-.02734.0625-.0625v-1.05469c0-.03516-.02734-.0625-.05859-.0625z" fill="#fff"/>
 <path d="m1.74609 5.4375h.75391c.12109 0 .21875.09766.21875.21484v.45313c0 .12109-.09766.21875-.21875.21875h-.75391c-.12109 0-.21875-.09766-.21875-.21875v-.45313c0-.11719.09766-.21484.21875-.21484z" fill="#fff"/>
 <path d="m1.74609 6.58594h1.64453c.12109 0 .21875.09766.21875.21484v.45313c0 .12109-.09766.21875-.21875.21875h-1.64453c-.12109 0-.21875-.09766-.21875-.21875v-.45313c0-.11719.09766-.21484.21875-.21484z" fill="#fff"/>
</svg>
